<?xml version="1.0" encoding="UTF-8" standalone="no"?>
<svg
   xmlns:svg="http://www.w3.org/2000/svg"
   xmlns="http://www.w3.org/2000/svg"
   version="1.1"
   width="357.48087"
   height="126.0625"
   id="svg3086">
  <defs
     id="defs3088" />
  <g
     transform="translate(-177.78125,-565.33093)"
     id="layer1">
    <path
       d="m 177.78125,565.33093 0,126.0625 0.51037,0 356.75178,0 0.21873,0 0,-126.0625 -357.48088,0 z"
       id="path70"
       style="fill:#ff0000;fill-opacity:1;fill-rule:nonzero;stroke:none" />
    <path
       d="m 261.64599,608.62527 c -5.54559,-0.16186 -8.97093,5.7089 -8.97093,12.01567 0,6.36073 3.42534,11.68904 8.97093,11.68904 5.54558,0 8.97092,-5.32831 8.97092,-11.68904 0,-6.30677 -3.4268,-12.17753 -8.97238,-12.01421 l 0.001,-10e-4 z m 0,-7.77373 c 11.52571,-0.21874 18.75699,8.91551 18.75699,19.73545 0,10.81848 -7.23128,19.6815 -18.75699,19.62609 -11.52572,0.0554 -18.75699,-8.75366 -18.75699,-19.57214 0,-10.81848 7.23127,-20.00814 18.75699,-19.7894 z m 63.5562,22.45356 c -3.20806,0.43455 -4.89376,2.12024 -4.89376,4.51317 0,2.39147 2.12024,4.56566 4.7844,4.51171 5.05562,0.21727 8.20974,-3.20807 8.26369,-6.0895 l 0,-4.67503 c 0,0 -7.17587,1.57633 -8.15433,1.73965 z m 3.31598,-7.82915 c 4.67503,-0.97846 4.67503,-1.41301 4.83835,-3.31597 0,-1.73965 -1.95692,-3.53471 -5.21894,-3.53471 -3.31598,0 -6.52405,0.54391 -6.41468,5.87222 l -9.46089,0 c 0,0 -0.81514,-13.80927 15.11438,-13.592 8.31764,0 15.71224,2.06629 15.16833,13.75532 l 0,24.30258 -9.45943,0 0,-1.73965 c -2.39293,2.06483 -5.7089,2.98934 -9.24215,2.98934 -7.28669,0 -13.26536,-5.2729 -13.26536,-11.79695 0,-5.87222 2.87997,-10.38539 11.19907,-11.69049 2.93538,-0.54245 5.10958,-0.92305 6.74132,-1.24969 z m 28.14351,-28.86969 -9.68545,0.005 0,52.35422 9.68545,-10e-4 0,-52.35713 z m -60.92705,38.49244 7.23128,-22.99748 9.73211,0 -12.83082,36.86217 -9.67816,0 -10.6012,-36.86217 10.00334,0 6.14345,22.99748 z m -96.48703,-38.49244 0,52.35713 10.4933,0 0,-22.34566 19.40881,0 0,22.34566 10.54726,0 0,-52.35713 -10.54726,0 0,20.98659 -19.40881,0 0,-20.98659"
       id="path84"
       style="fill:#ffffff;fill-opacity:1;fill-rule:evenodd;stroke:none" />
  </g>
</svg>
